<?xml version="1.0" encoding="utf-8"?>
<!-- Generator: Adobe Illustrator 27.5.0, SVG Export Plug-In . SVG Version: 6.00 Build 0)  -->
<svg version="1.1" xmlns="http://www.w3.org/2000/svg" xmlns:xlink="http://www.w3.org/1999/xlink" x="0px" y="0px"
	 viewBox="0 0 1122 1122" style="enable-background:new 0 0 1122 1122;" xml:space="preserve">
<g id="Bg">
	<g>
		<g>
			<rect style="fill:#FFFFFF;" width="1122" height="1122"/>
		</g>
	</g>
</g>
<g id="Object">
	<g>
		<path style="fill:#82BFAB;" d="M301.752,458.145l-1.923,1.352c-3.263,3.097-3.381,8.268-0.307,11.519l20.532,21.626
			c2.301,2.408,5.896,3.149,9.001,1.793c45.965-20.244,98.607-19.957,144.446,0.78c2.956,1.332,6.415,0.737,8.756-1.474
			l22.006-20.902c1.907-1.805,2.822-4.449,2.459-7.05c-0.37-2.605-1.947-4.859-4.264-6.065
			C439.916,427.305,364.891,426.71,301.752,458.145z"/>
		<path style="fill:#616E7D;" d="M249.694,389.414l-1.411,1.068c-3.247,3.093-3.374,8.256-0.307,11.496l20.216,21.312
			c2.491,2.644,6.495,3.239,9.734,1.434c77.751-44.038,173.828-42.891,250.705,2.991c3.066,1.844,7.023,1.395,9.592-1.044
			l21.351-20.248c1.837-1.742,2.743-4.177,2.491-6.699c-0.245-2.499-1.624-4.733-3.72-6.065
			C465.264,334.476,344.123,332.816,249.694,389.414z"/>
		<rect x="325.436" y="694.708" style="fill:#FFFFFF;" width="385.323" height="19.877"/>
		<rect x="746.668" y="718.029" style="fill:#FFFFFF;" width="93.318" height="7.047"/>
		<rect x="746.692" y="674.255" style="fill:#82BFAB;" width="47.14" height="24.717"/>
		<rect x="793.831" y="674.255" style="fill:#AAD4C8;" width="46.17" height="24.717"/>
		<path style="fill:#616E7D;" d="M302.248,635.403c-11.475,0-20.784,9.304-20.784,20.768v96.959c0,11.476,9.309,20.78,20.784,20.78
			h553.217c11.484,0,20.776-9.304,20.776-20.78v-96.959c0-11.464-9.292-20.768-20.776-20.768H411.534v-56.18
			c14.038-4.339,24.323-17.269,24.323-32.756c0-19.015-15.432-34.447-34.45-34.447c-19.011,0-34.443,15.432-34.443,34.447
			c0,15.487,10.262,28.417,24.323,32.756v56.18H302.248z M746.692,674.255h47.14h46.17v24.717h-46.17h-47.14V674.255z
			 M746.668,718.029h93.318v7.047h-93.318V718.029z M383.491,546.179c0-10.08,8.189-18.237,18.262-18.237
			c10.088,0,18.238,8.157,18.238,18.237c0,10.085-8.15,18.262-18.238,18.262C391.681,564.44,383.491,556.264,383.491,546.179z
			 M710.759,694.708v19.877H325.436v-19.877H710.759z"/>
		<path style="fill:#AAD4C8;" d="M383.491,546.179c0,10.085,8.189,18.262,18.262,18.262c10.088,0,18.238-8.177,18.238-18.262
			c0-10.08-8.15-18.237-18.238-18.237C391.681,527.941,383.491,536.098,383.491,546.179z"/>
	</g>
</g>
</svg>
