<svg xmlns="http://www.w3.org/2000/svg" viewBox="0 0 512 512" xml:space="preserve"><path style="fill:#e7e8e3" d="M512 402.282c0 16.716-13.55 30.267-30.265 30.267H30.265C13.55 432.549 0 418.996 0 402.282V109.717c0-16.716 13.55-30.266 30.265-30.266h451.469c16.716 0 30.265 13.551 30.265 30.266z"/><path style="fill:#34495e" d="M0 148.13h512v72.01H0z"/><path style="fill:#fff" d="M0 220.16h512v44.555H0z"/><path style="opacity:.15;fill:#202121" d="M21.517 402.282V109.717c0-16.716 13.552-30.266 30.267-30.266h-21.52C13.55 79.451 0 93.003 0 109.717v292.565c0 16.716 13.55 30.267 30.265 30.267h21.52c-16.715 0-30.268-13.553-30.268-30.267"/><path style="fill:#34495e" d="M160.063 322.723H55.437a8.347 8.347 0 0 1-8.348-8.348 8.347 8.347 0 0 1 8.348-8.348h104.626c4.611 0 8.348 3.736 8.348 8.348s-3.737 8.348-8.348 8.348m0 34.699H55.437a8.35 8.35 0 0 1-8.348-8.348 8.347 8.347 0 0 1 8.348-8.348h104.626c4.611 0 8.348 3.736 8.348 8.348s-3.737 8.348-8.348 8.348m0 34.699H55.437a8.35 8.35 0 0 1-8.348-8.348 8.347 8.347 0 0 1 8.348-8.348h104.626a8.348 8.348 0 1 1 0 16.696"/><path style="fill:#ee3725" d="M426.722 294.646H322.495l52.116 52.116zm-104.227 19.667v-19.667l-52.108 52.116 52.108 52.109v-23.597zm104.227-19.667v104.225l52.115-52.109zm-23.598 80.628-28.513-28.512-28.516 28.512h-.002l-23.598 23.597h104.227z"/></svg>